<svg width="16" height="16" viewBox="0 0 16 16" fill="none" xmlns="http://www.w3.org/2000/svg">
<path fill-rule="evenodd" clip-rule="evenodd" d="M12.4716 4.47141C12.7319 4.21107 12.7319 3.78896 12.4716 3.52861C12.2112 3.26826 11.7891 3.26826 11.5288 3.52861L8.00016 7.0572L4.47157 3.52861C4.21122 3.26826 3.78911 3.26826 3.52876 3.52861C3.26841 3.78896 3.26841 4.21107 3.52876 4.47141L7.05735 8.00001L3.52876 11.5286C3.26841 11.789 3.26841 12.2111 3.52876 12.4714C3.78911 12.7318 4.21122 12.7318 4.47157 12.4714L8.00016 8.94282L11.5288 12.4714C11.7891 12.7318 12.2112 12.7318 12.4716 12.4714C12.7319 12.2111 12.7319 11.789 12.4716 11.5286L8.94297 8.00001L12.4716 4.47141Z" fill="#8A8E97"/>
</svg>
